<svg width="700" height="668" viewBox="0 0 700 668" fill="none" xmlns="http://www.w3.org/2000/svg">
  <defs>
    <linearGradient id="panel-bg" x1="0%" y1="0%" x2="100%" y2="100%">
      <stop offset="0%" stop-color="#0a0e18" />
      <stop offset="100%" stop-color="#0d1117" />
    </linearGradient>

    <linearGradient id="accent-grad" x1="0%" y1="0%" x2="100%" y2="0%">
      <stop offset="0%" stop-color="#2ea043" />
      <stop offset="50%" stop-color="#388bfd" />
      <stop offset="100%" stop-color="#a371f7" />
    </linearGradient>

    <pattern id="grid" width="24" height="24" patternUnits="userSpaceOnUse">
      <path d="M 24 0 L 0 0 0 24" fill="none" stroke="#30363d" stroke-width="0.5" stroke-opacity="0.2"/>
    </pattern>

    <clipPath id="panel-clip"><rect width="700" height="668" rx="14" /></clipPath>
    <clipPath id="clip-p"><rect x="8" y="12" width="684" height="196" rx="8" /></clipPath>
    <clipPath id="clip-s"><rect x="8" y="228" width="330" height="194" rx="8" /></clipPath>
    <clipPath id="clip-r"><rect x="362" y="228" width="330" height="194" rx="8" /></clipPath>
    <clipPath id="clip-d"><rect x="8" y="442" width="330" height="194" rx="8" /></clipPath>
    <clipPath id="clip-m"><rect x="362" y="442" width="330" height="194" rx="8" /></clipPath>

    <style>
      .mono { font-family: ui-monospace, SFMono-Regular, "SF Mono", Menlo, Consolas, monospace; }
      .live { fill: #7ee787; font-size: 11px; font-weight: 700; letter-spacing: 1.5px; }
    </style>
  </defs>

  <rect width="700" height="668" rx="14" fill="url(#panel-bg)" stroke="#30363d" stroke-width="1" />
  <rect width="700" height="668" rx="14" fill="url(#grid)" />

  <rect x="2" y="2" width="696" height="664" rx="12" fill="none" stroke="url(#accent-grad)" stroke-width="2"
        stroke-dasharray="14 8">
    <animate attributeName="stroke-dashoffset" values="0;-220" dur="6s" repeatCount="indefinite" />
  </rect>

  <g clip-path="url(#panel-clip)">
    <rect x="-140" y="0" width="90" height="668" fill="#ffffff" fill-opacity="0.04">
      <animateTransform attributeName="transform" type="translate" values="-140,0;780,0" dur="5s" repeatCount="indefinite" />
    </rect>
  </g>

  <g>
    <circle cx="648" cy="34" r="4" fill="#3fb950">
      <animate attributeName="opacity" values="1;0.25;1" dur="1.5s" repeatCount="indefinite" />
    </circle>
    <text x="660" y="38" class="mono live">LIVE DATA</text>
  </g>

    <g transform="translate(8, 12) scale(0.97714)" clip-path="url(#clip-p)">
<g xmlns="http://www.w3.org/2000/svg" class="gpsc-root"><rect x="1" y="1" rx="5" ry="5" height="99%" width="99.71428571428571%" stroke="#2e343b" stroke-width="1" fill="#0d1117" stroke-opacity="1"/><text x="30" y="40" class="gpsc-item" style="--gpsc-i: 0; font-size: 22px; fill: #0366d6;">h1ntz0 (Zein/(Jenjun))</text><g transform="translate(0,40)"><g transform="translate(30,30)"><g class="gpsc-item" style="--gpsc-i: 0;"><g transform="translate(0,0)" width="14" height="14" fill="#8b949e"><path fill-rule="evenodd" d="M8 0C3.58 0 0 3.58 0 8c0 3.54 2.29 6.53 5.47 7.59.4.07.55-.17.55-.38 0-.19-.01-.82-.01-1.49-2.01.37-2.53-.49-2.69-.94-.09-.23-.48-.94-.82-1.13-.28-.15-.68-.52-.01-.53.63-.01 1.08.58 1.23.82.72 1.21 1.87.87 2.33.66.07-.52.28-.87.51-1.07-1.78-.2-3.64-.89-3.64-3.95 0-.87.31-1.59.82-2.15-.08-.2-.36-1.02.08-2.12 0 0 .67-.21 2.2.82.64-.18 1.32-.27 2-.27.68 0 1.36.09 2 .27 1.53-1.04 2.2-.82 2.2-.82.44 1.1.16 1.92.08 2.12.51.56.82 1.27.82 2.15 0 3.07-1.87 3.75-3.65 3.95.29.25.54.73.54 1.48 0 1.07-.01 1.93-.01 2.2 0 .21.15.46.55.38A8.013 8.013 0 0016 8c0-4.42-3.58-8-8-8z"/></g></g><g class="gpsc-item" style="--gpsc-i: 1;"><g transform="translate(0,28)" width="14" height="14" fill="#8b949e"><path fill-rule="evenodd" d="M2 2.5A2.5 2.5 0 014.5 0h8.75a.75.75 0 01.75.75v12.5a.75.75 0 01-.75.75h-2.5a.75.75 0 110-1.5h1.75v-2h-8a1 1 0 00-.714 1.7.75.75 0 01-1.072 1.05A2.495 2.495 0 012 11.5v-9zm10.5-1V9h-8c-.356 0-.694.074-1 .208V2.5a1 1 0 011-1h8zM5 12.25v3.25a.25.25 0 00.4.2l1.45-1.087a.25.25 0 01.3 0L8.6 15.7a.25.25 0 00.4-.2v-3.25a.25.25 0 00-.25-.25h-3.5a.25.25 0 00-.25.25z"/></g></g><g class="gpsc-item" style="--gpsc-i: 2;"><g transform="translate(0,56)" width="14" height="14" fill="#8b949e"><path fill-rule="evenodd" d="M1.5 8a6.5 6.5 0 1113 0 6.5 6.5 0 01-13 0zM8 0a8 8 0 100 16A8 8 0 008 0zm.5 4.75a.75.75 0 00-1.5 0v3.5a.75.75 0 00.471.696l2.5 1a.75.75 0 00.557-1.392L8.5 7.742V4.75z"/></g></g><g class="gpsc-item" style="--gpsc-i: 3;"><g transform="translate(0,84)" width="14" height="14" fill="#8b949e"><path fill-rule="evenodd" d="M1.75 2A1.75 1.75 0 000 3.75v.736a.75.75 0 000 .027v7.737C0 13.216.784 14 1.75 14h12.5A1.75 1.75 0 0016 12.25v-8.5A1.75 1.75 0 0014.25 2H1.75zM14.5 4.07v-.32a.25.25 0 00-.25-.25H1.75a.25.25 0 00-.25.25v.32L8 7.88l6.5-3.81zm-13 1.74v6.441c0 .138.112.25.25.25h12.5a.25.25 0 00.25-.25V5.809L8.38 9.397a.75.75 0 01-.76 0L1.5 5.809z"/></g></g><text x="21" y="14" class="gpsc-item" style="--gpsc-i: 0; fill: #77909c; font-size: 14px;">141 Contributions on GitHub</text><text x="21" y="42" class="gpsc-item" style="--gpsc-i: 1; fill: #77909c; font-size: 14px;">13 Public Repos</text><text x="21" y="70" class="gpsc-item" style="--gpsc-i: 2; fill: #77909c; font-size: 14px;">Joined GitHub 2 years ago</text><text x="21" y="98" class="gpsc-item" style="--gpsc-i: 3; fill: #77909c; font-size: 14px;">arrofi.zein12@gmail.com</text></g><g color="#40c463" transform="translate(295,10)"><clipPath id="gpsc-reveal-clip"><rect class="gpsc-reveal" x="-30" y="0" width="410" height="110" style="--gpsc-w: 410px; --gpsc-i: 4;"/></clipPath><g clip-path="url(#gpsc-reveal-clip)" class="gpsc-chart" style="--gpsc-i: 4;"><path transform="translate(-30,0)" stroke="#40c463" fill="#40c463" opacity="1" d="M0,102.3C10.757990867579908,106.15,21.51598173515982,110,32.273972602739725,110C42.68493150684932,110,53.0958904109589,110,63.50684931506849,110C74.2648401826484,110,85.02283105022832,110,95.78082191780823,110C106.19178082191782,110,116.6027397260274,110,127.01369863013699,110C137.7716894977169,110,148.5296803652968,100.10000000000001,159.2876712328767,100.10000000000001C170.0456621004566,100.10000000000001,180.80365296803654,110,191.56164383561645,110C201.2785388127854,110,210.99543378995432,110,220.71232876712327,110C231.4703196347032,110,242.2283105022831,110,252.98630136986304,110C263.3972602739726,110,273.8082191780822,110,284.2191780821918,110C294.9771689497717,110,305.7351598173516,110,316.4931506849315,110C326.90410958904107,110,337.3150684931507,110,347.7260273972603,110C358.4840182648402,110,369.2420091324201,55,380,0L380,110C369.2420091324201,110,358.4840182648402,110,347.7260273972603,110C337.3150684931507,110,326.90410958904107,110,316.4931506849315,110C305.7351598173516,110,294.9771689497717,110,284.2191780821918,110C273.8082191780822,110,263.3972602739726,110,252.98630136986304,110C242.2283105022831,110,231.4703196347032,110,220.71232876712327,110C210.99543378995432,110,201.2785388127854,110,191.56164383561645,110C180.80365296803654,110,170.0456621004566,110,159.2876712328767,110C148.5296803652968,110,137.7716894977169,110,127.01369863013699,110C116.6027397260274,110,106.19178082191782,110,95.78082191780823,110C85.02283105022832,110,74.2648401826484,110,63.50684931506849,110C53.0958904109589,110,42.68493150684932,110,32.273972602739725,110C21.51598173515982,110,10.757990867579908,110,0,110Z"/></g><g color="#77909c" transform="translate(-30,110)" fill="none" font-size="10" font-family="sans-serif" text-anchor="middle"><path class="domain" stroke="currentColor" d="M0.5,6V0.5H380.5V6"/><g class="tick" opacity="1" transform="translate(0.5,0)"><line stroke="currentColor" y2="6"/><text fill="currentColor" y="9" dy="0.71em">25/08</text></g><g class="tick" opacity="1" transform="translate(64.0068493150685,0)"><line stroke="currentColor" y2="6"/><text fill="currentColor" y="9" dy="0.71em">25/10</text></g><g class="tick" opacity="1" transform="translate(127.51369863013699,0)"><line stroke="currentColor" y2="6"/><text fill="currentColor" y="9" dy="0.71em">25/12</text></g><g class="tick" opacity="1" transform="translate(192.06164383561645,0)"><line stroke="currentColor" y2="6"/><text fill="currentColor" y="9" dy="0.71em">26/02</text></g><g class="tick" opacity="1" transform="translate(253.48630136986304,0)"><line stroke="currentColor" y2="6"/><text fill="currentColor" y="9" dy="0.71em">26/04</text></g><g class="tick" opacity="1" transform="translate(316.9931506849315,0)"><line stroke="currentColor" y2="6"/><text fill="currentColor" y="9" dy="0.71em">26/06</text></g><g class="tick" opacity="1" transform="translate(380.5,0)"><line stroke="currentColor" y2="6"/><text fill="currentColor" y="9" dy="0.71em">26/08</text></g></g><g color="#77909c" transform="translate(350,0)" fill="none" font-size="10" font-family="sans-serif" text-anchor="start"><path class="domain" stroke="currentColor" d="M6,110.5H0.5V0.5H6"/><g class="tick" opacity="1" transform="translate(0,110.5)"><line stroke="currentColor" x2="6"/><text fill="currentColor" x="9" dy="0.32em">0</text></g><g class="tick" opacity="1" transform="translate(0,99.5)"><line stroke="currentColor" x2="6"/><text fill="currentColor" x="9" dy="0.32em">10</text></g><g class="tick" opacity="1" transform="translate(0,88.5)"><line stroke="currentColor" x2="6"/><text fill="currentColor" x="9" dy="0.32em">20</text></g><g class="tick" opacity="1" transform="translate(0,77.5)"><line stroke="currentColor" x2="6"/><text fill="currentColor" x="9" dy="0.32em">30</text></g><g class="tick" opacity="1" transform="translate(0,66.5)"><line stroke="currentColor" x2="6"/><text fill="currentColor" x="9" dy="0.32em">40</text></g><g class="tick" opacity="1" transform="translate(0,55.5)"><line stroke="currentColor" x2="6"/><text fill="currentColor" x="9" dy="0.32em">50</text></g><g class="tick" opacity="1" transform="translate(0,44.5)"><line stroke="currentColor" x2="6"/><text fill="currentColor" x="9" dy="0.32em">60</text></g><g class="tick" opacity="1" transform="translate(0,33.50000000000001)"><line stroke="currentColor" x2="6"/><text fill="currentColor" x="9" dy="0.32em">70</text></g><g class="tick" opacity="1" transform="translate(0,22.499999999999996)"><line stroke="currentColor" x2="6"/><text fill="currentColor" x="9" dy="0.32em">80</text></g><g class="tick" opacity="1" transform="translate(0,11.499999999999998)"><line stroke="currentColor" x2="6"/><text fill="currentColor" x="9" dy="0.32em">90</text></g><g class="tick" opacity="1" transform="translate(0,0.5)"><line stroke="currentColor" x2="6"/><text fill="currentColor" x="9" dy="0.32em">100</text></g></g><g><text y="-15" x="230" style="fill: #77909c; font-size: 10px;">contributions in the last year</text></g></g></g></g>
    </g>
    <g transform="translate(8, 228) scale(0.97059)" clip-path="url(#clip-s)">
<g xmlns="http://www.w3.org/2000/svg" class="gpsc-root"><rect x="1" y="1" rx="5" ry="5" height="99%" width="99.41176470588235%" stroke="#2e343b" stroke-width="1" fill="#0d1117" stroke-opacity="1"/><text x="30" y="40" class="gpsc-item" style="--gpsc-i: 0; font-size: 22px; fill: #0366d6;">Stats</text><g transform="translate(0,40)"><g transform="translate(30,20)"><g class="gpsc-item" style="--gpsc-i: 0;"><g transform="translate(0,0)" width="14" height="14" fill="#8b949e"><path fill-rule="evenodd" d="M8 .25a.75.75 0 01.673.418l1.882 3.815 4.21.612a.75.75 0 01.416 1.279l-3.046 2.97.719 4.192a.75.75 0 01-1.088.791L8 12.347l-3.766 1.98a.75.75 0 01-1.088-.79l.72-4.194L.818 6.374a.75.75 0 01.416-1.28l4.21-.611L7.327.668A.75.75 0 018 .25zm0 2.445L6.615 5.5a.75.75 0 01-.564.41l-3.097.45 2.24 2.184a.75.75 0 01.216.664l-.528 3.084 2.769-1.456a.75.75 0 01.698 0l2.77 1.456-.53-3.084a.75.75 0 01.216-.664l2.24-2.183-3.096-.45a.75.75 0 01-.564-.41L8 2.694v.001z"/></g></g><g class="gpsc-item" style="--gpsc-i: 1;"><g transform="translate(0,25.2)" width="14" height="14" fill="#8b949e"><path fill-rule="evenodd" d="M10.5 7.75a2.5 2.5 0 11-5 0 2.5 2.5 0 015 0zm1.43.75a4.002 4.002 0 01-7.86 0H.75a.75.75 0 110-1.5h3.32a4.001 4.001 0 017.86 0h3.32a.75.75 0 110 1.5h-3.32z"/></g></g><g class="gpsc-item" style="--gpsc-i: 2;"><g transform="translate(0,50.4)" width="14" height="14" fill="#8b949e"><path fill-rule="evenodd" d="M7.177 3.073L9.573.677A.25.25 0 0110 .854v4.792a.25.25 0 01-.427.177L7.177 3.427a.25.25 0 010-.354zM3.75 2.5a.75.75 0 100 1.5.75.75 0 000-1.5zm-2.25.75a2.25 2.25 0 113 2.122v5.256a2.251 2.251 0 11-1.5 0V5.372A2.25 2.25 0 011.5 3.25zM11 2.5h-1V4h1a1 1 0 011 1v5.628a2.251 2.251 0 101.5 0V5A2.5 2.5 0 0011 2.5zm1 10.25a.75.75 0 111.5 0 .75.75 0 01-1.5 0zM3.75 12a.75.75 0 100 1.5.75.75 0 000-1.5z"/></g></g><g class="gpsc-item" style="--gpsc-i: 3;"><g transform="translate(0,75.60000000000001)" width="14" height="14" fill="#8b949e"><path fill-rule="evenodd" d="M8 1.5a6.5 6.5 0 100 13 6.5 6.5 0 000-13zM0 8a8 8 0 1116 0A8 8 0 010 8zm9 3a1 1 0 11-2 0 1 1 0 012 0zm-.25-6.25a.75.75 0 00-1.5 0v3.5a.75.75 0 001.5 0v-3.5z"/></g></g><g class="gpsc-item" style="--gpsc-i: 4;"><g transform="translate(0,100.8)" width="14" height="14" fill="#8b949e"><path fill-rule="evenodd" d="M2 2.5A2.5 2.5 0 014.5 0h8.75a.75.75 0 01.75.75v12.5a.75.75 0 01-.75.75h-2.5a.75.75 0 110-1.5h1.75v-2h-8a1 1 0 00-.714 1.7.75.75 0 01-1.072 1.05A2.495 2.495 0 012 11.5v-9zm10.5-1V9h-8c-.356 0-.694.074-1 .208V2.5a1 1 0 011-1h8zM5 12.25v3.25a.25.25 0 00.4.2l1.45-1.087a.25.25 0 01.3 0L8.6 15.7a.25.25 0 00.4-.2v-3.25a.25.25 0 00-.25-.25h-3.5a.25.25 0 00-.25.25z"/></g></g><text x="21" y="14" class="gpsc-item" style="--gpsc-i: 0; fill: #77909c; font-size: 14px;">Total Stars:</text><text x="21" y="39.2" class="gpsc-item" style="--gpsc-i: 1; fill: #77909c; font-size: 14px;">Total Commits:</text><text x="21" y="64.4" class="gpsc-item" style="--gpsc-i: 2; fill: #77909c; font-size: 14px;">Total PRs:</text><text x="21" y="89.60000000000001" class="gpsc-item" style="--gpsc-i: 3; fill: #77909c; font-size: 14px;">Total Issues:</text><text x="21" y="114.8" class="gpsc-item" style="--gpsc-i: 4; fill: #77909c; font-size: 14px;">Contributed to:</text><text x="130" y="14" class="gpsc-item" style="--gpsc-i: 0; fill: #77909c; font-size: 14px;">6</text><text x="130" y="39.2" class="gpsc-item" style="--gpsc-i: 1; fill: #77909c; font-size: 14px;">123</text><text x="130" y="64.4" class="gpsc-item" style="--gpsc-i: 2; fill: #77909c; font-size: 14px;">2</text><text x="130" y="89.60000000000001" class="gpsc-item" style="--gpsc-i: 3; fill: #77909c; font-size: 14px;">1</text><text x="130" y="114.8" class="gpsc-item" style="--gpsc-i: 4; fill: #77909c; font-size: 14px;">10</text></g><g transform="translate(220,20)"><g transform="scale(6)" style="fill: #8b949e;"><path fill-rule="evenodd" d="M8 0C3.58 0 0 3.58 0 8c0 3.54 2.29 6.53 5.47 7.59.4.07.55-.17.55-.38 0-.19-.01-.82-.01-1.49-2.01.37-2.53-.49-2.69-.94-.09-.23-.48-.94-.82-1.13-.28-.15-.68-.52-.01-.53.63-.01 1.08.58 1.23.82.72 1.21 1.87.87 2.33.66.07-.52.28-.87.51-1.07-1.78-.2-3.64-.89-3.64-3.95 0-.87.31-1.59.82-2.15-.08-.2-.36-1.02.08-2.12 0 0 .67-.21 2.2.82.64-.18 1.32-.27 2-.27.68 0 1.36.09 2 .27 1.53-1.04 2.2-.82 2.2-.82.44 1.1.16 1.92.08 2.12.51.56.82 1.27.82 2.15 0 3.07-1.87 3.75-3.65 3.95.29.25.54.73.54 1.48 0 1.07-.01 1.93-.01 2.2 0 .21.15.46.55.38A8.013 8.013 0 0016 8c0-4.42-3.58-8-8-8z"/></g></g></g></g>
    </g>
    <g transform="translate(362, 228) scale(0.97059)" clip-path="url(#clip-r)">
<g xmlns="http://www.w3.org/2000/svg" class="gpsc-root"><rect x="1" y="1" rx="5" ry="5" height="99%" width="99.41176470588235%" stroke="#2e343b" stroke-width="1" fill="#0d1117" stroke-opacity="1"/><text x="30" y="40" class="gpsc-item" style="--gpsc-i: 0; font-size: 22px; fill: #0366d6;">Top Languages by Repo</text><g transform="translate(0,40)"><g transform="translate(40,0)"><rect y="18" width="14" height="14" class="gpsc-item" style="--gpsc-i: 0; stroke-width: 1px;" fill="#3572A5" stroke="#0d1117"/><rect y="43.2" width="14" height="14" class="gpsc-item" style="--gpsc-i: 1; stroke-width: 1px;" fill="#3178c6" stroke="#0d1117"/><rect y="68.4" width="14" height="14" class="gpsc-item" style="--gpsc-i: 2; stroke-width: 1px;" fill="#f1e05a" stroke="#0d1117"/><rect y="93.60000000000002" width="14" height="14" class="gpsc-item" style="--gpsc-i: 3; stroke-width: 1px;" fill="#663399" stroke="#0d1117"/><rect y="118.80000000000001" width="14" height="14" class="gpsc-item" style="--gpsc-i: 4; stroke-width: 1px;" fill="#e34c26" stroke="#0d1117"/><text x="16.8" y="30" class="gpsc-item" style="--gpsc-i: 0; fill: #77909c; font-size: 14px;">Python</text><text x="16.8" y="55.2" class="gpsc-item" style="--gpsc-i: 1; fill: #77909c; font-size: 14px;">TypeScript</text><text x="16.8" y="80.4" class="gpsc-item" style="--gpsc-i: 2; fill: #77909c; font-size: 14px;">JavaScript</text><text x="16.8" y="105.60000000000002" class="gpsc-item" style="--gpsc-i: 3; fill: #77909c; font-size: 14px;">CSS</text><text x="16.8" y="130.8" class="gpsc-item" style="--gpsc-i: 4; fill: #77909c; font-size: 14px;">HTML</text></g><g transform="translate( 230, 80 )"><g class="arc" style="--gpsc-i: 0;"><path d="M3.67394039744206e-15,-60A60,60,0,0,1,16.903953410485776,57.569578416869845L9.860639489450037,33.58225407650741A35,35,0,0,0,2.1431318985078682e-15,-35Z" style="fill: #3572A5; stroke-width: 2px;" stroke="#0d1117"/></g><g class="arc" style="--gpsc-i: 1;"><path d="M16.903953410485776,57.569578416869845A60,60,0,0,1,-45.34497446125551,39.291644036717095L-26.451235102399046,22.92012568808497A35,35,0,0,0,9.860639489450037,33.58225407650741Z" style="fill: #3178c6; stroke-width: 2px;" stroke="#0d1117"/></g><g class="arc" style="--gpsc-i: 2;"><path d="M-45.34497446125551,39.291644036717095A60,60,0,0,1,-54.57791972127109,-24.924900780113212L-31.837119837408135,-14.539525455066041A35,35,0,0,0,-26.451235102399046,22.92012568808497Z" style="fill: #f1e05a; stroke-width: 2px;" stroke="#0d1117"/></g><g class="arc" style="--gpsc-i: 3;"><path d="M-54.57791972127109,-24.924900780113212A60,60,0,0,1,-32.438449047335844,-50.47521196987088L-18.92242861094591,-29.443873649091348A35,35,0,0,0,-31.837119837408135,-14.539525455066041Z" style="fill: #663399; stroke-width: 2px;" stroke="#0d1117"/></g><g class="arc" style="--gpsc-i: 4;"><path d="M-32.438449047335844,-50.47521196987088A60,60,0,0,1,-1.1021821192326178e-14,-60L-6.429395695523604e-15,-35A35,35,0,0,0,-18.92242861094591,-29.443873649091348Z" style="fill: #e34c26; stroke-width: 2px;" stroke="#0d1117"/></g></g></g></g>
    </g>
    <g transform="translate(8, 442) scale(0.97059)" clip-path="url(#clip-d)">
<g xmlns="http://www.w3.org/2000/svg" class="gpsc-root"><rect x="1" y="1" rx="5" ry="5" height="99%" width="99.41176470588235%" stroke="#2e343b" stroke-width="1" fill="#0d1117" stroke-opacity="1"/><text x="30" y="40" class="gpsc-item" style="--gpsc-i: 0; font-size: 22px; fill: #0366d6;">Commits (UTC +7.00)</text><g transform="translate(0,40)"><g color="#40c463" transform="translate(35,20)"><g color="#77909c" transform="translate(0,100)" fill="none" font-size="10" font-family="sans-serif" text-anchor="middle"><path class="domain" stroke="currentColor" d="M-1.1618257261410783,0.5H280.5"/><g class="tick" opacity="1" transform="translate(6.3900414937759304,0)"><line stroke="currentColor" y2="6"/><text fill="currentColor" y="9" dy="0.71em">0</text></g><g class="tick" opacity="1" transform="translate(76.09958506224066,0)"><line stroke="currentColor" y2="6"/><text fill="currentColor" y="9" dy="0.71em">6</text></g><g class="tick" opacity="1" transform="translate(145.8091286307054,0)"><line stroke="currentColor" y2="6"/><text fill="currentColor" y="9" dy="0.71em">12</text></g><g class="tick" opacity="1" transform="translate(215.51867219917014,0)"><line stroke="currentColor" y2="6"/><text fill="currentColor" y="9" dy="0.71em">18</text></g><g class="tick" opacity="1" transform="translate(273.6099585062241,0)"><line stroke="currentColor" y2="6"/><text fill="currentColor" y="9" dy="0.71em">23</text></g></g><g color="#77909c" transform="translate(-1.1618257261410783,0)" fill="none" font-size="10" font-family="sans-serif" text-anchor="end"><path class="domain" stroke="currentColor" d="M-6,100.5H0.5V0.5H-6"/><g class="tick" opacity="1" transform="translate(0,100.5)"><line stroke="currentColor" x2="-6"/><text fill="currentColor" x="-9" dy="0.32em">0</text></g><g class="tick" opacity="1" transform="translate(0,72.72222222222221)"><line stroke="currentColor" x2="-6"/><text fill="currentColor" x="-9" dy="0.32em">5</text></g><g class="tick" opacity="1" transform="translate(0,44.94444444444444)"><line stroke="currentColor" x2="-6"/><text fill="currentColor" x="-9" dy="0.32em">10</text></g><g class="tick" opacity="1" transform="translate(0,17.166666666666664)"><line stroke="currentColor" x2="-6"/><text fill="currentColor" x="-9" dy="0.32em">15</text></g></g><rect class="bar" style="--gpsc-i: 0;" fill="#40c463" x="1.1618257261410747" y="94.44444444444444" width="10.456431535269711" height="5.555555555555557"/><rect class="bar" style="--gpsc-i: 1;" fill="#40c463" x="12.780082987551864" y="100" width="10.456431535269711" height="0"/><rect class="bar" style="--gpsc-i: 2;" fill="#40c463" x="24.398340248962654" y="100" width="10.456431535269711" height="0"/><rect class="bar" style="--gpsc-i: 3;" fill="#40c463" x="36.016597510373444" y="100" width="10.456431535269711" height="0"/><rect class="bar" style="--gpsc-i: 4;" fill="#40c463" x="47.634854771784234" y="100" width="10.456431535269711" height="0"/><rect class="bar" style="--gpsc-i: 5;" fill="#40c463" x="59.25311203319502" y="100" width="10.456431535269711" height="0"/><rect class="bar" style="--gpsc-i: 6;" fill="#40c463" x="70.87136929460581" y="100" width="10.456431535269711" height="0"/><rect class="bar" style="--gpsc-i: 7;" fill="#40c463" x="82.4896265560166" y="100" width="10.456431535269711" height="0"/><rect class="bar" style="--gpsc-i: 8;" fill="#40c463" x="94.10788381742739" y="94.44444444444444" width="10.456431535269711" height="5.555555555555557"/><rect class="bar" style="--gpsc-i: 9;" fill="#40c463" x="105.72614107883818" y="94.44444444444444" width="10.456431535269711" height="5.555555555555557"/><rect class="bar" style="--gpsc-i: 10;" fill="#40c463" x="117.34439834024897" y="77.77777777777779" width="10.456431535269711" height="22.222222222222214"/><rect class="bar" style="--gpsc-i: 11;" fill="#40c463" x="128.96265560165978" y="27.77777777777778" width="10.456431535269711" height="72.22222222222223"/><rect class="bar" style="--gpsc-i: 12;" fill="#40c463" x="140.58091286307055" y="100" width="10.456431535269711" height="0"/><rect class="bar" style="--gpsc-i: 13;" fill="#40c463" x="152.19917012448136" y="100" width="10.456431535269711" height="0"/><rect class="bar" style="--gpsc-i: 14;" fill="#40c463" x="163.81742738589213" y="94.44444444444444" width="10.456431535269711" height="5.555555555555557"/><rect class="bar" style="--gpsc-i: 15;" fill="#40c463" x="175.4356846473029" y="61.111111111111114" width="10.456431535269711" height="38.888888888888886"/><rect class="bar" style="--gpsc-i: 16;" fill="#40c463" x="187.0539419087137" y="61.111111111111114" width="10.456431535269711" height="38.888888888888886"/><rect class="bar" style="--gpsc-i: 17;" fill="#40c463" x="198.67219917012451" y="22.22222222222222" width="10.456431535269711" height="77.77777777777777"/><rect class="bar" style="--gpsc-i: 18;" fill="#40c463" x="210.2904564315353" y="33.333333333333336" width="10.456431535269711" height="66.66666666666666"/><rect class="bar" style="--gpsc-i: 19;" fill="#40c463" x="221.90871369294607" y="94.44444444444444" width="10.456431535269711" height="5.555555555555557"/><rect class="bar" style="--gpsc-i: 20;" fill="#40c463" x="233.52697095435687" y="83.33333333333334" width="10.456431535269711" height="16.666666666666657"/><rect class="bar" style="--gpsc-i: 21;" fill="#40c463" x="245.14522821576767" y="27.77777777777778" width="10.456431535269711" height="72.22222222222223"/><rect class="bar" style="--gpsc-i: 22;" fill="#40c463" x="256.76348547717845" y="0" width="10.456431535269711" height="100"/><rect class="bar" style="--gpsc-i: 23;" fill="#40c463" x="268.3817427385892" y="100" width="10.456431535269711" height="0"/><g><text y="130" x="220" style="fill: #77909c; font-size: 10px;">per day hour</text></g></g></g></g>
    </g>
    <g transform="translate(362, 442) scale(0.97059)" clip-path="url(#clip-m)">
<g xmlns="http://www.w3.org/2000/svg" class="gpsc-root"><rect x="1" y="1" rx="5" ry="5" height="99%" width="99.41176470588235%" stroke="#2e343b" stroke-width="1" fill="#0d1117" stroke-opacity="1"/><text x="30" y="40" class="gpsc-item" style="--gpsc-i: 0; font-size: 22px; fill: #0366d6;">Top Languages by Commit</text><g transform="translate(0,40)"><g transform="translate(40,0)"><rect y="18" width="14" height="14" class="gpsc-item" style="--gpsc-i: 0; stroke-width: 1px;" fill="#3178c6" stroke="#0d1117"/><rect y="43.2" width="14" height="14" class="gpsc-item" style="--gpsc-i: 1; stroke-width: 1px;" fill="#3572A5" stroke="#0d1117"/><rect y="68.4" width="14" height="14" class="gpsc-item" style="--gpsc-i: 2; stroke-width: 1px;" fill="#f1e05a" stroke="#0d1117"/><rect y="93.60000000000002" width="14" height="14" class="gpsc-item" style="--gpsc-i: 3; stroke-width: 1px;" fill="#00ADD8" stroke="#0d1117"/><rect y="118.80000000000001" width="14" height="14" class="gpsc-item" style="--gpsc-i: 4; stroke-width: 1px;" fill="#e34c26" stroke="#0d1117"/><text x="16.8" y="30" class="gpsc-item" style="--gpsc-i: 0; fill: #77909c; font-size: 14px;">TypeScript</text><text x="16.8" y="55.2" class="gpsc-item" style="--gpsc-i: 1; fill: #77909c; font-size: 14px;">Python</text><text x="16.8" y="80.4" class="gpsc-item" style="--gpsc-i: 2; fill: #77909c; font-size: 14px;">JavaScript</text><text x="16.8" y="105.60000000000002" class="gpsc-item" style="--gpsc-i: 3; fill: #77909c; font-size: 14px;">Go</text><text x="16.8" y="130.8" class="gpsc-item" style="--gpsc-i: 4; fill: #77909c; font-size: 14px;">HTML</text></g><g transform="translate( 230, 80 )"><g class="arc" style="--gpsc-i: 0;"><path d="M3.67394039744206e-15,-60A60,60,0,1,1,-50.57353628500782,32.28494118980237L-29.501229499587897,18.83288236071805A35,35,0,1,0,2.1431318985078682e-15,-35Z" style="fill: #3178c6; stroke-width: 2px;" stroke="#0d1117"/></g><g class="arc" style="--gpsc-i: 1;"><path d="M-50.57353628500782,32.28494118980237A60,60,0,0,1,-54.42545482406045,-25.25608574570009L-31.74818198070193,-14.732716684991718A35,35,0,0,0,-29.501229499587897,18.83288236071805Z" style="fill: #3572A5; stroke-width: 2px;" stroke="#0d1117"/></g><g class="arc" style="--gpsc-i: 2;"><path d="M-54.42545482406045,-25.25608574570009A60,60,0,0,1,-30.576998555515065,-51.62409475560835L-17.83658249071712,-30.11405527410487A35,35,0,0,0,-31.74818198070193,-14.732716684991718Z" style="fill: #f1e05a; stroke-width: 2px;" stroke="#0d1117"/></g><g class="arc" style="--gpsc-i: 3;"><path d="M-30.576998555515065,-51.62409475560835A60,60,0,0,1,-11.951159106230207,-58.7977023021952L-6.971509478634287,-34.29865967628053A35,35,0,0,0,-17.83658249071712,-30.11405527410487Z" style="fill: #00ADD8; stroke-width: 2px;" stroke="#0d1117"/></g><g class="arc" style="--gpsc-i: 4;"><path d="M-11.951159106230207,-58.7977023021952A60,60,0,0,1,-6.431252637433369e-14,-60L-3.7515640385027985e-14,-35A35,35,0,0,0,-6.971509478634287,-34.29865967628053Z" style="fill: #e34c26; stroke-width: 2px;" stroke="#0d1117"/></g></g></g></g>
    </g>
</svg>
